SplineFontDB: 1.0
FontName: SporniketNostalgieSans-Bold
FullName: Sporniket Nostalgie Sans -- Bold
FamilyName: Sporniket Nostalgie Sans
Weight: Bold

StartChar: O
Encoding: 79 79 0
Width: 320
Flags: W
TeX: 79 0 0 0
HStem: 0 80<128.265 180> 400 80<128.265 180>
VStem: 40 80<100 391.735> 200 80<88.2651 380>
Fore
140 400 m 18
 135.311 400.041 129.217 397.416 125.9 394.1 c 0
 122.584 390.783 120 384.69 120 380 c 10
 120 100 l 18
 120 95.3096 122.584 89.2168 125.9 85.9004 c 0
 129.217 82.584 135.31 80 140 80 c 10
 180 80 l 18
 184.69 80 190.732 82.6357 194.1 85.9004 c 0
 197.468 89.1641 200 95.3096 200 100 c 10
 200 380 l 18
 200 384.69 197.334 390.704 194.1 394.1 c 0
 190.865 397.496 184.69 400 180 400 c 10
 140 400 l 18
140 480 m 10
 180 480 l 18
 203.47 480 234.404 467.596 251 451 c 0
 267.596 434.404 280 403.47 280 380 c 10
 280 100 l 18
 280 76.5303 267.596 45.5957 251 29 c 0
 234.404 12.4043 203.47 0 180 0 c 10
 140 0 l 18
 116.53 0 87.5957 14.4043 71 31 c 0
 54.4043 47.5957 40 76.5303 40 100 c 10
 40 380 l 18
 40 403.47 54.4043 434.404 71 451 c 0
 87.5957 467.596 116.53 480 140 480 c 10
EndSplineSet
EndChar
StartChar: o
Encoding: 111 111 1
Width: 320
Flags: W
TeX: 111 0 0 0
HStem: 0 80<128.265 180> 280 80<128.265 180>
VStem: 40 80<100 271.735> 200 80<88.2651 260>
Fore
140 280 m 22
 135.311 280.041 129.217 277.416 125.9 274.1 c 4
 122.584 270.783 120 264.69 120 260 c 14
 120 100 l 22
 120 95.3096 122.584 89.2168 125.9 85.9004 c 4
 129.217 82.584 135.31 80 140 80 c 14
 180 80 l 22
 184.69 80 190.732 82.6357 194.1 85.9004 c 4
 197.468 89.1641 200 95.3096 200 100 c 14
 200 260 l 22
 200 264.69 197.334 270.704 194.1 274.1 c 4
 190.865 277.496 184.69 280 180 280 c 14
 140 280 l 22
140 360 m 14
 180 360 l 22
 203.47 360 234.404 347.596 251 331 c 4
 267.596 314.404 280 283.47 280 260 c 14
 280 100 l 22
 280 76.5303 267.596 45.5957 251 29 c 4
 234.404 12.4043 203.47 0 180 0 c 14
 140 0 l 22
 116.53 0 87.5957 14.4043 71 31 c 4
 54.4043 47.5957 40 76.5303 40 100 c 14
 40 260 l 22
 40 283.47 54.4043 314.404 71 331 c 4
 87.5957 347.596 116.53 360 140 360 c 14
EndSplineSet
EndChar
StartChar: b
Encoding: 98 98 2
Width: 320
Flags: W
TeX: 98 0 0 0
HStem: 0 21G<40 100> 0 80<128.265 180> 280 80<128.265 180> 460 20G<40 120>
VStem: 40 80<0 480 100 271.735> 200 80<88.2651 260>
Fore
40 480 m 29xbc
 120 480 l 29
 120 80 l 22x7c
 120 57.7 109.973 19.9457 100 0 c 13
 40 0 l 29
 40 480 l 29xbc
EndSplineSet
Refer: 1 111 N 1 0 0 1 0 0 2
EndChar
StartChar: d
Encoding: 100 100 3
Width: 320
Flags: W
TeX: 100 0 0 0
HStem: 0 21G<220 280> 0 80<128.265 180> 280 80<128.265 180> 460 20G<200 280>
VStem: 40 80<100 271.735> 200 80<0 480 88.2651 260>
Fore
200 480 m 29x7c
 280 480 l 29
 280 0 l 29
 220 0 l 21xbc
 210.027 19.9457 200 57.7 200 80 c 14
 200 480 l 29x7c
EndSplineSet
Refer: 1 111 N 1 0 0 1 0 0 2
EndChar
StartChar: g
Encoding: 103 103 4
Width: 320
Flags: W
TeX: 103 0 0 0
HStem: -120 80<40 191.735> 0 80<128.265 180> 280 80<128.265 180> 340 20G<220 280>
VStem: 40 80<100 271.735> 200 80<-20 360 88.2651 260>
Fore
220 360 m 13xdc
 280 360 l 29xdc
 280 -20 l 22
 280 -43.47 267.596 -74.4042 251 -91 c 4
 234.404 -107.596 203.47 -120 180 -120 c 14
 40 -120 l 29
 40 -40 l 29
 180 -40 l 22
 184.69 -40 190.784 -37.4163 194.1 -34.1 c 4
 197.416 -30.7837 200 -24.69 200 -20 c 14
 200 280 l 22xec
 200 302.3 210.027 340.054 220 360 c 13xdc
EndSplineSet
Refer: 1 111 N 1 0 0 1 0 0 2
EndChar
StartChar: p
Encoding: 112 112 5
Width: 320
Flags: W
TeX: 112 0 0 0
HStem: -120 21G<40 120> 0 80<128.265 180> 280 80<128.265 180> 340 20G<40 100>
VStem: 40 80<-120 360 100 271.735> 200 80<88.2651 260>
Fore
40 360 m 29xdc
 100 360 l 21xdc
 109.973 340.054 120 302.3 120 280 c 14xec
 120 -120 l 29
 40 -120 l 29
 40 360 l 29xdc
EndSplineSet
Refer: 1 111 N 1 0 0 1 0 0 2
EndChar
StartChar: q
Encoding: 113 113 6
Width: 320
Flags: W
TeX: 113 0 0 0
HStem: -120 21G<200 280> 0 80<128.265 180> 280 80<128.265 180> 340 20G<220 280>
VStem: 40 80<100 271.735> 200 80<-120 360 88.2651 260>
Fore
220 360 m 9xdc
 280 360 l 25xdc
 280 -120 l 25
 200 -120 l 25
 200 280 l 22xec
 200 302.3 210.027 340.054 220 360 c 9xdc
EndSplineSet
Refer: 1 111 N 1 0 0 1 0 0 2
EndChar
StartChar: zero
Encoding: 48 48 7
Width: 320
Flags: W
TeX: 122 0 0 0
HStem: 0 80<128.265 180> 400 80<128.265 180>
VStem: 40 80<100 391.735> 200 80<88.2651 380>
Fore
89.2891 197.573 m 29
 202.427 310.711 l 29
 230.711 282.427 l 29
 117.573 169.289 l 29
 89.2891 197.573 l 29
EndSplineSet
Refer: 0 79 N 1 0 0 1 0 0 2
EndChar
StartChar: a
Encoding: 97 97 8
Width: 320
Flags: W
TeX: 97 0 0 0
HStem: 0 80<128.265 180> 160 80<128.265 180> 280 80<100 191.735>
VStem: 40 80<100 151.735> 200 80<0 271.735>
Fore
80 360 m 13
 180 360 l 18
 203.47 360 234.404 347.596 251 331 c 0
 267.596 314.404 280 283.47 280 260 c 10
 280 0 l 25
 220 0 l 17
 210.027 19.9457 200 57.7 200 80 c 10
 200 260 l 18
 200 264.69 197.416 270.784 194.1 274.1 c 0
 190.784 277.416 184.69 280 180 280 c 10
 100 280 l 17
 90.0272 299.946 80 337.7 80 360 c 13
140 160 m 18
 135.311 160.041 129.217 157.416 125.9 154.1 c 0
 122.584 150.783 120 144.69 120 140 c 10
 120 100 l 18
 120 95.3096 122.584 89.2168 125.9 85.9004 c 0
 129.217 82.584 135.31 80 140 80 c 10
 180 80 l 18
 184.69 80 190.732 82.6357 194.1 85.9004 c 0
 197.468 89.1641 200 95.3096 200 100 c 10
 200 140 l 18
 200 144.69 197.334 150.704 194.1 154.1 c 0
 190.865 157.496 184.69 160 180 160 c 10
 140 160 l 18
140 240 m 10
 180 240 l 18
 203.47 240 234.404 227.596 251 211 c 0
 267.596 194.404 280 163.47 280 140 c 10
 280 100 l 18
 280 76.5303 267.596 45.5957 251 29 c 0
 234.404 12.4043 203.47 0 180 0 c 10
 140 0 l 18
 116.53 0 87.5957 14.4043 71 31 c 0
 54.4043 47.5957 40 76.5303 40 100 c 10
 40 140 l 18
 40 163.47 54.4043 194.404 71 211 c 0
 87.5957 227.596 116.53 240 140 240 c 10
EndSplineSet
EndChar
StartChar: c
Encoding: 99 99 9
Width: 320
Flags: W
TeX: 99 0 0 0
HStem: 0 80<140 211.15> 280 80<128.265 170>
VStem: 40 80<88.2652 260>
Fore
280 20 m 17
 260.055 10.0273 222.3 0 200 0 c 10
 140 0 l 18
 116.53 0 87.5957 14.4043 71 31 c 0
 54.4043 47.5957 40 76.5303 40 100 c 10
 40 260 l 18
 40 283.47 54.4043 314.404 71 331 c 0
 87.5957 347.596 116.53 360 140 360 c 10
 170 360 l 22
 192.3 360 229.56 348.915 250 340 c 13
 214.2 268.5 l 21
 202.843 273.453 182.39 280 170 280 c 14
 140 280 l 18
 135.311 280.041 129.217 277.416 125.9 274.1 c 0
 122.584 270.783 120 264.69 120 260 c 10
 120 100 l 18
 120 95.3096 122.584 89.2168 125.9 85.9004 c 0
 129.217 82.584 135.31 80 140 80 c 10
 200 80 l 18
 222.3 80 260.055 90.0273 280 100 c 1
 280 20 l 17
EndSplineSet
EndChar
StartChar: e
Encoding: 101 101 11
Width: 320
Flags: W
TeX: 101 0 0 0
HStem: 0 80<140 211.15> 160 40<120 200> 280 80<140 191.735>
VStem: 40 80<97.6548 160 100 271.735> 200 80<160 260>
CounterMasks: 1 00
Fore
200 200 m 0
 200 260 l 2
 200 264.69 197.334 270.704 194.1 274.1 c 0
 190.865 277.496 184.69 280 180 280 c 10
 140 280 l 18
 135.311 280.041 129.217 277.416 125.9 274.1 c 0
 122.584 270.783 120 264.69 120 260 c 2
 120 200 l 0
 200 200 l 0
280 100 m 5
 280 20 l 5
 260.054 10.0272 222.3 0 200 0 c 14
 140 0 l 22
 116.53 0 87.5957 14.4043 71 31 c 4
 54.4043 47.5957 40 76.5303 40 100 c 14
 40 260 l 22
 40 283.47 54.4043 314.404 71 331 c 4
 87.5957 347.596 116.53 360 140 360 c 14
 180 360 l 22
 203.47 360 234.404 347.596 251 331 c 4
 267.596 314.404 280 283.47 280 260 c 6
 280 160 l 4
 120 160 l 4
 120 100 l 6
 120 95.3096 122.584 89.2168 125.9 85.9004 c 4
 129.217 82.584 135.31 80 140 80 c 14
 200 80 l 22
 222.3 80 260.06 90.015 280 100 c 5
EndSplineSet
EndChar
StartChar: .notdef
Encoding: 0 0 12
Width: 320
Flags: WO
TeX: 78 0 0 0
HStem: 120 80<128.265 180> 280 80<128.265 180>
VStem: 40 80<220 271.735> 200 80<208.265 260>
Fore
140 280 m 22
 135.311 280.041 129.217 277.416 125.9 274.1 c 4
 122.584 270.783 120 264.69 120 260 c 14
 120 220 l 22
 120 215.31 122.584 209.217 125.9 205.9 c 4
 129.217 202.584 135.31 200 140 200 c 14
 180 200 l 22
 184.69 200 190.732 202.636 194.1 205.9 c 4
 197.468 209.164 200 215.31 200 220 c 14
 200 260 l 22
 200 264.69 197.334 270.704 194.1 274.1 c 4
 190.865 277.496 184.69 280 180 280 c 14
 140 280 l 22
140 360 m 14
 180 360 l 22
 203.47 360 234.404 347.596 251 331 c 4
 267.596 314.404 280 283.47 280 260 c 14
 280 220 l 22
 280 196.53 267.596 165.596 251 149 c 4
 234.404 132.404 203.47 120 180 120 c 14
 140 120 l 22
 116.53 120 87.5957 134.404 71 151 c 4
 54.4043 167.596 40 196.53 40 220 c 14
 40 260 l 22
 40 283.47 54.4043 314.404 71 331 c 4
 87.5957 347.596 116.53 360 140 360 c 14
EndSplineSet
EndChar
StartChar: f
Encoding: 102 102 13
Width: 320
Flags: HW
TeX: 102 0 0 0
HStem: 0 21G<120 180> 240 80<60 120 200 260> 400 80<208.265 280>
VStem: 120 80<0 240 320 380>
Fore
120 320 m 1
 60 320 l 1
 50.0272 300.054 40 262.3 40 240 c 1
 120 240 l 1
 120 0 l 9
 200 0 l 25
 200 240 l 13
 260 240 l 17
 269.973 259.946 280 297.7 280 320 c 1
 200 320 l 1
 200 380 l 2
 200 384.69 202.584 390.783 205.9 394.1 c 0
 209.216 397.416 215.31 400 220 400 c 10
 280 400 l 25
 280 480 l 25
 220 480 l 18
 196.53 480 165.596 467.596 149 451 c 0
 132.404 434.404 120 403.47 120 380 c 2
 120 320 l 1
EndSplineSet
EndChar
StartChar: t
Encoding: 116 116 14
Width: 320
Flags: W
TeX: 116 0 0 0
HStem: 0 80<208.265 280> 280 80<60 120 200 260> 460 20G<120 200>
VStem: 120 80<100 280 360 480>
Fore
200 360 m 29
 280 360 l 21
 280 337.7 269.973 299.946 260 280 c 5
 200 280 l 5
 200 100 l 6
 200 95.3096 202.584 89.2168 205.9 85.9004 c 4
 209.216 82.584 215.31 80 220 80 c 14
 280 80 l 29
 280 0 l 29
 220 0 l 22
 196.53 0 165.596 12.4043 149 29 c 4
 132.404 45.5957 120 76.5303 120 100 c 6
 120 280 l 5
 40 280 l 5
 40 302.3 50.0272 340.054 60 360 c 5
 120 360 l 5
 120 480 l 13
 200 480 l 29
 200 360 l 29
EndSplineSet
EndChar
StartChar: n
Encoding: 110 110 15
Width: 320
Flags: HW
TeX: 110 0 0 0
HStem: 0 21G<40 120 220 280> 280 80<140 191.735>
VStem: 40 80<0 271.735> 200 80<0 260>
Fore
200 0 m 9
 200 260 l 22
 200 264.69 197.334 270.704 194.1 274.1 c 0
 190.865 277.496 184.69 280 180 280 c 10
 140 280 l 18
 135.311 280.041 129.217 277.416 125.9 274.1 c 0
 122.584 270.783 120 264.69 120 260 c 10
 120 0 l 25
 40 0 l 1
 40 260 l 18
 40 283.47 54.4043 314.404 71 331 c 0
 87.5957 347.596 116.53 360 140 360 c 10
 180 360 l 18
 203.47 360 234.404 347.596 251 331 c 0
 267.596 314.404 280 283.47 280 260 c 10
 280 0 l 17
 200 0 l 9
EndSplineSet
EndChar
StartChar: h
Encoding: 104 104 16
Width: 320
Flags: HW
TeX: 104 0 0 0
HStem: 0 21G<40 120 40 100 220 280> 280 80<140 191.735> 460 20G<40 120>
VStem: 40 80<0 271.735 0 480> 200 80<0 260>
Fore
40 480 m 29
 120 480 l 29
 120 80 l 22
 120 57.7 109.973 19.9457 100 0 c 13
 40 0 l 29
 40 480 l 29
EndSplineSet
Refer: 15 110 N 1 0 0 1 0 0 2
EndChar
StartChar: y
Encoding: 121 121 17
Width: 320
Flags: HW
TeX: 121 0 0 0
HStem: -120 80<40 191.735> 0 80<128.265 180> 340 20G<40 100 200 280 220 280>
VStem: 40 80<100 360> 200 80<-31.735 360 -20 360>
Fore
220 360 m 9
 280 360 l 25
 280 -20 l 18
 280 -43.47 267.596 -74.4042 251 -91 c 0
 234.404 -107.596 203.47 -120 180 -120 c 10
 40 -120 l 25
 40 -40 l 25
 180 -40 l 18
 184.69 -40 190.784 -37.4163 194.1 -34.1 c 0
 197.416 -30.7837 200 -24.69 200 -20 c 10
 200 280 l 18
 200 302.3 210.027 340.054 220 360 c 9
120 360 m 9
 120 100 l 22
 120 95.3096 122.666 89.2959 125.9 85.9004 c 0
 129.135 82.5039 135.31 80 140 80 c 10
 180 80 l 18
 184.689 79.959 190.783 82.584 194.1 85.9004 c 0
 197.416 89.2168 200 95.3096 200 100 c 10
 200 360 l 25
 280 360 l 1
 280 100 l 18
 280 76.5303 265.596 45.5957 249 29 c 0
 232.404 12.4043 203.47 0 180 0 c 10
 140 0 l 18
 116.53 0 85.5957 12.4043 69 29 c 0
 52.4043 45.5957 40 76.5303 40 100 c 10
 40 360 l 17
 120 360 l 9
EndSplineSet
EndChar
StartChar: u
Encoding: 117 117 18
Width: 320
Flags: HW
TeX: 117 0 0 0
HStem: 0 80<128.265 180> 340 20G<40 100 200 280 200 280>
VStem: 40 80<100 360> 200 80<0 360 80 360>
Fore
200 360 m 25
 280 360 l 25
 280 0 l 25
 220 0 l 17
 210.027 19.9457 200 57.7 200 80 c 10
 200 360 l 25
120 360 m 13
 120 100 l 18
 120 95.3096 122.666 89.2959 125.9 85.9004 c 0
 129.135 82.5039 135.31 80 140 80 c 10
 180 80 l 18
 184.689 79.959 190.783 82.584 194.1 85.9004 c 0
 197.416 89.2168 200 95.3096 200 100 c 10
 200 360 l 25
 280 360 l 1
 280 100 l 18
 280 76.5303 265.596 45.5957 249 29 c 0
 232.404 12.4043 203.47 0 180 0 c 10
 140 0 l 18
 116.53 0 85.5957 12.4043 69 29 c 0
 52.4043 45.5957 40 76.5303 40 100 c 10
 40 360 l 17
 120 360 l 13
EndSplineSet
EndChar
StartChar: m
Encoding: 109 109 19
Width: 480
Flags: HW
TeX: 109 0 0 0
HStem: 0 21G<40 120 380 440> 280 80<140 189.65 300 351.735>
VStem: 40 80<0 271.735> 200 80<120 262.345> 360 80<0 260>
CounterMasks: 1 00
Fore
360 0 m 9
 360 260 l 2
 360 264.69 357.334 270.704 354.1 274.1 c 0
 350.865 277.496 344.69 280 340 280 c 2
 300 280 l 2
 295.31 280 289.217 277.416 285.9 274.1 c 0
 282.584 270.783 280 264.69 280 260 c 2
 280 120 l 1
 200 120 l 9
 200 260 l 6
 200 264.69 197.334 270.704 194.1 274.1 c 0
 190.865 277.496 184.69 280 180 280 c 2
 140 280 l 2
 135.311 280 129.217 277.416 125.9 274.1 c 0
 122.584 270.783 120 264.69 120 260 c 2
 120 0 l 1
 40 0 l 1
 40 260 l 2
 40 283.47 54.4043 314.404 71 331 c 0
 87.5957 347.596 116.53 360 140 360 c 2
 180 360 l 2
 199.299 360 223.646 351.613 240.917 339.404 c 1
 257.707 351.613 280.701 360 300 360 c 2
 340 360 l 2
 363.47 360 394.404 347.596 411 331 c 0
 427.596 314.404 440 283.47 440 260 c 2
 440 0 l 1
 360 0 l 9
EndSplineSet
EndChar
StartChar: r
Encoding: 114 114 20
Width: 320
Flags: W
TeX: 114 0 0 0
HStem: 0 21G<40 120 40 120> 280 80<140 191.735>
VStem: 40 80<0 360>
Fore
40 360 m 25
 100 360 l 17
 109.973 340.054 120 302.3 120 280 c 10
 120 0 l 25
 40 0 l 25
 40 360 l 25
280 260 m 13
 200 260 l 22
 195.31 260 197.334 270.704 194.1 274.1 c 4
 190.865 277.496 184.69 280 180 280 c 14
 140 280 l 22
 135.311 280.041 129.217 277.416 125.9 274.1 c 4
 122.584 270.783 120 264.69 120 260 c 14
 120 0 l 29
 40 0 l 5
 40 260 l 22
 40 283.47 54.4043 314.404 71 331 c 4
 87.5957 347.596 116.53 360 140 360 c 14
 180 360 l 22
 203.47 360 234.404 347.596 251 331 c 4
 267.596 314.404 280 283.47 280 260 c 13
EndSplineSet
EndChar
StartChar: j
Encoding: 106 106 21
Width: 160
Flags: HW
TeX: 0 0 0 0
HStem: -120 80<-210 -96.888> 340 20G<-70 -10> 460 20G<-44.695 -35.305>
VStem: -90 80<-30.0863 313.498>
Fore
80 480 m 4
 89.3896 480 101.66 474.939 108.3 468.3 c 4
 114.939 461.66 120 449.39 120 440 c 4
 120 430.61 114.939 418.34 108.3 411.7 c 4
 101.66 405.061 89.3896 400 80 400 c 4
 70.6104 400 58.3398 405.061 51.7002 411.7 c 4
 45.0605 418.34 40 430.61 40 440 c 4
 40 449.39 45.0605 461.66 51.7002 468.3 c 4
 58.3398 474.939 70.6104 480 80 480 c 4
40 360 m 29
 120 360 l 29
 120 -20 l 22
 120 -43.4697 107.596 -74.4043 91 -91 c 4
 74.4043 -107.596 43.4697 -120 20 -120 c 14
 -80 -120 l 29
 -80 -40 l 29
 20 -40 l 22
 24.6904 -40 30.7842 -37.416 34.0996 -34.0996 c 4
 37.416 -30.7842 40 -24.6904 40 -20 c 14
 40 360 l 29
EndSplineSet
EndChar
StartChar: l
Encoding: 108 108 22
Width: 160
Flags: HW
TeX: 0 0 0 0
HStem: 0 80<-40 -6.5014 86.888 120> 400 80<-40 0>
VStem: 0 80<93.903 400>
Fore
120 480 m 29
 120 100 l 22
 120 95.3096 122.584 89.2158 125.9 85.9004 c 4
 129.216 82.584 135.31 80 140 80 c 14
 180 80 l 21
 180 57.7002 169.973 19.9453 160 0 c 13
 140 0 l 22
 116.53 0 85.8965 12.7041 69.2998 29.2998 c 4
 52.7041 45.8955 40 76.5303 40 100 c 14
 40 480 l 29
 120 480 l 29
EndSplineSet
EndChar
StartChar: i
Encoding: 105 105 23
Width: 160
Flags: W
TeX: 0 0 0 0
HStem: 0 21G<140 160> 340 20G<40 120> 460 20G<75.3052 84.6948>
VStem: 40 80<89.9137 360 421.505 458.495>
Fore
120 360 m 25
 120 100 l 18
 120 95.3096 122.584 89.2158 125.9 85.9004 c 0
 129.216 82.584 135.31 80 140 80 c 10
 180 80 l 17
 180 57.7002 169.973 19.9453 160 0 c 9
 140 0 l 18
 116.53 0 85.8965 12.7041 69.2998 29.2998 c 0
 52.7041 45.8955 40 76.5303 40 100 c 10
 40 360 l 25
 120 360 l 25
80 480 m 4
 89.3896 480 101.66 474.939 108.3 468.3 c 4
 114.939 461.66 120 449.39 120 440 c 4
 120 430.61 114.939 418.34 108.3 411.7 c 4
 101.66 405.061 89.3896 400 80 400 c 4
 70.6104 400 58.3398 405.061 51.7002 411.7 c 4
 45.0605 418.34 40 430.61 40 440 c 4
 40 449.39 45.0605 461.66 51.7002 468.3 c 4
 58.3398 474.939 70.6104 480 80 480 c 4
EndSplineSet
EndChar
StartChar: k
Encoding: 107 107 24
Width: 360
Flags: W
TeX: 0 0 0 0
HStem: 0 21G<40 120> 460 20G<40 120>
Fore
176.403 258.866 m 29
 337.004 29.5029 l 21
 318.736 16.7129 282.059 3.27148 260 0 c 13
 110.869 212.979 l 29
 176.403 258.866 l 29
91.7236 228.283 m 25
 247.287 383.847 l 17
 263.056 368.078 282.662 334.291 289.714 313.136 c 9
 148.293 171.714 l 25
 91.7236 228.283 l 25
40 480 m 25
 120 480 l 25
 120 0 l 25
 40 0 l 25
 40 480 l 25
EndSplineSet
EndChar
StartChar: one
Encoding: 49 49 25
Width: 240
Flags: W
TeX: 0 0 0 0
HStem: 0 21G<80 160> 460 20G<80 160 80 160>
VStem: 80 80<0 480>
Fore
80 480 m 9
 160 480 l 17
 160 457.7 149.973 419.946 140 400 c 1
 100 320 l 1
 20 320 l 1
 60 400 l 1
 69.9727 419.946 80 457.7 80 480 c 9
80 480 m 25
 160 480 l 25
 160 0 l 25
 80 0 l 25
 80 480 l 25
EndSplineSet
EndChar
StartChar: I
Encoding: 73 73 26
Width: 160
Flags: W
TeX: 0 0 0 0
HStem: 0 21G<40 120> 460 20G<40 120>
VStem: 40 80<0 480>
Fore
120 480 m 29
 120 0 l 29
 40 0 l 29
 40 480 l 29
 120 480 l 29
EndSplineSet
EndChar
StartChar: z
Encoding: 122 122 27
Width: 320
Flags: W
TeX: 0 0 0 0
HStem: 0 80<131.11 280> 280 80<40 200>
VStem: 100 20<0 16.107>
Fore
100 80 m 25
 300 80 l 17
 300 57.7 289.973 19.9457 280 0 c 9
 100 0 l 25
 100 80 l 25
40 0 m 17
 40 22.3 50.0272 60.0543 60 80 c 9
 150 260 l 17
 161.18 282.361 202.322 342.322 220 360 c 9
 280 300 l 17
 264.232 284.232 231.095 244.38 221.11 224.44 c 9
 131.11 44.44 l 17
 125.569 33.358 120 12.39 120 0 c 9
 40 0 l 17
200 280 m 25
 40 280 l 25
 40 360 l 25
 280 360 l 25
 280 300 l 25
 200 280 l 25
EndSplineSet
EndChar
StartChar: v
Encoding: 118 118 28
Width: 320
Flags: HW
TeX: 0 0 0 0
HStem: -20 21G<140 180> 340 20G<40 120 200 280>
VStem: 40 80<199.591 360> 200 80<193.469 360>
Fore
40 360 m 29
 120 360 l 29
 120 240 l 17
 120 227.61 125.569 206.642 131.11 195.56 c 9
 160 137.78 l 1
 188.89 195.56 l 1
 194.431 206.642 200 227.61 200 240 c 9
 200 360 l 29
 280 360 l 29
 280 240 l 17
 280 217.7 269.973 179.946 260 160 c 9
 180 0 l 25
 140 0 l 25
 60 160 l 17
 50.0272 179.946 40 217.7 40 240 c 9
 40 360 l 29
EndSplineSet
EndChar
StartChar: w
Encoding: 119 119 29
Width: 480
Flags: HW
TeX: 0 0 0 0
HStem: -100 21G<140 180> 260 20G<40 120 200 280>
VStem: 40 80<119.591 280> 200 80<113.469 280>
Fore
40 360 m 5
 120 360 l 1
 120 240 l 2
 120 227.61 125.569 206.642 131.11 195.56 c 2
 160 137.78 l 1
 188.89 195.56 l 2
 194.431 206.642 200 227.61 200 240 c 2
 200 280 l 1
 280 280 l 1
 280 240 l 2
 280 227.61 285.569 206.642 291.11 195.56 c 2
 320 137.78 l 1
 348.89 195.56 l 2
 354.431 206.642 360 227.61 360 240 c 2
 360 360 l 1
 440 360 l 1
 440 240 l 2
 440 217.7 429.973 179.945 420 160 c 2
 340 0 l 1
 300 0 l 1
 240 120 l 1
 180 0 l 1
 140 0 l 1
 60 160 l 2
 50.0272 179.946 40 217.7 40 240 c 2
 40 360 l 5
EndSplineSet
EndChar
StartChar: x
Encoding: 120 120 30
Width: 320
Flags: W
TeX: 0 0 0 0
HStem: -7.8916 379.883<99.001 199.499>
VStem: 18.5029 281.494<9.99707 9.99707>
Fore
99.001 -7.8916 m 17
 76.7012 -7.8916 38.4482 0.0244141 18.5029 9.99707 c 9
 199.499 371.991 l 17
 221.799 371.991 260.052 364.075 279.997 354.103 c 9
 99.001 -7.8916 l 17
119.001 371.991 m 13
 299.997 9.99707 l 21
 280.052 0.0244141 241.799 -7.8916 219.499 -7.8916 c 13
 38.5029 354.103 l 21
 58.4482 364.075 96.7012 371.991 119.001 371.991 c 13
EndSplineSet
EndChar
StartChar: s
Encoding: 115 115 31
Width: 320
Flags: HW
TeX: 0 0 0 0
HStem: 0 80<40 191.686> 280 80<131.011 260>
Fore
260 280 m 9
 140 280 l 17
 135.31 280 129.176 276.456 125.86 273.14 c 1
 122.544 269.824 120 264.65 120 260 c 1
 120 259.416 122.051 248.527 125.86 245.86 c 1
 129.148 242.572 234.114 187.306 250.71 170.71 c 1
 267.306 154.114 280 123.47 280 100 c 1
 280 76.53 267.306 38.8858 250.71 22.29 c 1
 234.114 5.69421 203.47 0 180 0 c 9
 40 0 l 21
 30.0272 19.9457 20 57.7 20 80 c 9
 180 80 l 17
 184.69 80 190.823 83.5439 194.14 86.8604 c 1
 197.456 90.1768 200 95.3496 200 100 c 1
 200 100.584 197.949 111.473 194.14 114.14 c 1
 190.852 117.428 85.8857 172.694 69.29 189.29 c 1
 52.6943 205.886 40 236.53 40 260 c 1
 40 283.47 52.6943 321.114 69.29 337.71 c 1
 85.8857 354.306 116.53 360 140 360 c 9
 280 360 l 17
 280 337.7 269.973 299.946 260 280 c 9
EndSplineSet
EndChar
StartChar: S
Encoding: 83 83 32
Width: 320
Flags: W
TeX: 0 0 0 0
HStem: 0 80<40 191.686> 400 80<131.011 260>
VStem: 40 80<330.451 392.167> 200 80<90.6405 152.414>
Fore
260 400 m 9
 140 400 l 17
 135.31 400 129.177 396.456 125.86 393.14 c 1
 122.544 389.823 120 384.65 120 380 c 1
 120 379.603 120 340 120 340 c 17
 120 335.31 124.642 326.714 125.86 325.86 c 1
 129.148 322.572 234.114 227.306 250.71 210.71 c 1
 261.202 200.218 280 163.47 280 140 c 9
 280 100 l 17
 280 76.53 267.306 38.8858 250.71 22.29 c 1
 234.114 5.69421 203.47 0 180 0 c 9
 40 0 l 17
 30.0272 19.9457 20 57.7 20 80 c 9
 180 80 l 17
 184.69 80 190.823 83.5439 194.14 86.8604 c 1
 197.456 90.1768 200 95.3496 200 100 c 1
 200 100.397 200 140 200 140 c 17
 200 144.69 195.358 153.286 194.14 154.14 c 1
 190.852 157.428 85.8857 252.694 69.29 269.29 c 1
 58.7979 279.782 40 316.53 40 340 c 9
 40 340 40 371.369 40 380 c 1
 40 403.47 52.6943 441.114 69.29 457.71 c 1
 85.8857 474.306 116.53 480 140 480 c 9
 280 480 l 17
 280 457.7 269.973 419.945 260 400 c 9
EndSplineSet
EndChar
StartChar: T
Encoding: 84 84 33
Width: 320
Flags: W
TeX: 0 0 0 0
HStem: 0 21G<120 200> 400 80<50 270>
VStem: 120 80<0 480>
Fore
30 480 m 9
 290 480 l 17
 290 457.7 279.973 419.946 270 400 c 9
 50 400 l 17
 40.0272 419.946 30 457.7 30 480 c 9
200 480 m 29
 200 0 l 29
 120 0 l 29
 120 480 l 29
 200 480 l 29
EndSplineSet
EndChar
StartChar: A
Encoding: 65 65 34
Width: 320
Flags: W
TeX: 0 0 0 0
HStem: 0 21G<40 120 200 280> 160 80<120 200> 460 20G<140 180>
VStem: 40 80<0 160 240 340> 200 80<0 160 240 356.107>
Fore
280 0 m 1
 200 0 l 1
 200 160 l 1
 120 160 l 1
 120 0 l 1
 40 0 l 1
 40 340 l 2
 40 362.3 52.6943 394.114 69.29 410.71 c 2
 140 480 l 1
 180 480 l 1
 250.71 410.71 l 2
 267.306 394.114 280 363.47 280 340 c 2
 280 0 l 1
120 240 m 1
 200 240 l 1
 200 340 l 2
 200 352.39 197.456 350.823 194.14 354.14 c 2
 160 394.14 l 1
 125.86 354.14 l 2
 122.544 350.823 124.69 340 120 340 c 1
 120 240 l 1
EndSplineSet
EndChar
StartChar: V
Encoding: 86 86 35
Width: 320
Flags: HW
TeX: 0 0 0 0
HStem: 100 21G<140 180> 460 20G<40 120 200 280>
VStem: 40 80<319.591 480> 200 80<313.469 480>
Fore
40 480 m 29
 120 480 l 29
 120 240 l 17
 120 227.61 125.569 206.642 131.11 195.56 c 9
 160 137.78 l 1
 188.89 195.56 l 1
 194.431 206.642 200 227.61 200 240 c 9
 200 480 l 29
 280 480 l 29
 280 240 l 17
 280 217.7 269.973 179.946 260 160 c 9
 180 0 l 25
 140 0 l 25
 60 160 l 17
 50.0272 179.946 40 217.7 40 240 c 9
 40 480 l 29
EndSplineSet
EndChar
StartChar: Y
Encoding: 89 89 36
Width: 320
Flags: W
TeX: 0 0 0 0
HStem: 0 21G<120 200> 460 20G<40 120 200 280>
VStem: 40 80<379.591 480> 120 80<0 200> 200 80<373.469 480>
CounterMasks: 1 00
Fore
40 480 m 1
 120 480 l 1
 120 400 l 6
 120 387.61 125.569 366.642 131.11 355.56 c 6
 160 297.78 l 5
 188.89 355.56 l 6
 194.431 366.642 200 387.61 200 400 c 6
 200 480 l 1
 280 480 l 1
 280 400 l 6
 280 377.7 269.973 339.946 260 320 c 6
 200 200 l 5
 200 0 l 1
 120 0 l 1
 120 200 l 5
 60 320 l 6
 50.0273 339.946 40 377.7 40 400 c 6
 40 480 l 1
EndSplineSet
EndChar
StartChar: P
Encoding: 80 80 37
Width: 320
Flags: HW
TeX: 0 0 0 0
HStem: 160 80<88.265 140> 560 80<88.265 140>
VStem: 0 80<260 551.735> 160 80<248.265 540>
Fore
100 480 m 1
 120 480 l 1
 180 480 l 2
 203.47 480 234.404 467.596 251 451 c 0
 267.596 434.404 280 403.47 280 380 c 2
 280 260 l 2
 280 236.53 267.596 205.596 251 189 c 0
 234.404 172.404 203.47 160 180 160 c 2
 120 160 l 1
 120 0 l 1
 40 0 l 1
 40 260 l 1
 40 380 l 1
 40 480 l 1
 100 480 l 1
120 400 m 1
 120 240 l 1
 180 240 l 2
 184.69 240 190.732 242.636 194.1 245.9 c 0
 197.467 249.165 200 255.31 200 260 c 2
 200 380 l 2
 200 384.69 197.334 390.704 194.1 394.1 c 0
 190.865 397.496 184.69 400 180 400 c 2
 120 400 l 1
EndSplineSet
EndChar
StartChar: B
Encoding: 66 66 38
Width: 320
Flags: HW
TeX: 0 0 0 0
HStem: 0 80<120 193.082> 240 80<120 186.097> 400 80<120 190.122>
VStem: 40 80<80 240 320 400> 200 80<89.8909 181.022 329.891 393.066>
Fore
248.175 266.337 m 1
 249.157 264.581 250.099 262.802 251 261 c 0
 267.596 227.8 280 166.94 280 120 c 2
 280 100 l 2
 280 76.5303 267.596 45.5957 251 29 c 0
 234.404 12.4043 203.47 0 180 0 c 2
 40 0 l 1
 40 480 l 1
 180 480 l 2
 203.47 480 234.404 467.596 251 451 c 0
 267.596 434.404 280 403.47 280 380 c 2
 280 340 l 6
 280 316.53 267.596 285.596 251 269 c 0
 250.099 268.099 249.157 267.211 248.175 266.337 c 1
180 240 m 2
 120 240 l 1
 120 80 l 1
 180 80 l 2
 184.69 80 190.732 82.6362 194.1 85.9004 c 0
 197.467 89.1646 200 95.3096 200 100 c 2
 200 120 l 2
 200 148.14 197.334 184.44 194.1 204.84 c 0
 190.865 225.24 184.69 240 180 240 c 2
180 320 m 2
 184.69 320 190.732 322.636 194.1 325.9 c 0
 197.467 329.165 200 335.31 200 340 c 2
 200 380 l 2
 200 384.69 197.334 390.704 194.1 394.1 c 0
 190.865 397.496 184.69 400 180 400 c 2
 120 400 l 1
 120 320 l 1
 180 320 l 2
EndSplineSet
EndChar
StartChar: R
Encoding: 82 82 39
Width: 360
Flags: W
TeX: 0 0 0 0
HStem: 0 21G<40 120> 400 80<120 190.122>
VStem: 40 80<0 200 280 400> 200 80<289.891 393.066>
Fore
219.001 251.991 m 13
 339.997 9.99707 l 21
 320.052 0.0244141 281.799 -7.8916 259.499 -7.8916 c 13
 138.503 234.103 l 21
 158.448 244.075 196.701 251.991 219.001 251.991 c 13
100 480 m 1
 120 480 l 1
 180 480 l 2
 203.47 480 234.404 467.596 251 451 c 0
 267.596 434.404 280 403.47 280 380 c 2
 280 300 l 2
 280 276.53 267.596 245.596 251 229 c 0
 234.404 212.404 203.47 200 180 200 c 2
 120 200 l 1
 120 0 l 1
 40 0 l 1
 40 300 l 1
 40 380 l 1
 40 480 l 1
 100 480 l 1
120 400 m 1
 120 280 l 1
 180 280 l 2
 184.69 280 190.732 282.636 194.1 285.9 c 0
 197.467 289.165 200 295.31 200 300 c 2
 200 380 l 2
 200 384.69 197.334 390.704 194.1 394.1 c 0
 190.865 397.496 184.69 400 180 400 c 2
 120 400 l 1
EndSplineSet
EndChar
StartChar: E
Encoding: 69 69 40
Width: 320
Flags: HW
TeX: 0 0 0 0
Fore
80 80 m 13
 300 80 l 21
 300 57.7002 289.973 19.9453 280 0 c 13
 100 0 l 21
 90.0273 19.9453 80 57.7002 80 80 c 13
EndSplineSet
Refer: 42 70 N 1 0 0 1 0 0 2
EndChar
StartChar: H
Encoding: 72 72 41
Width: 320
Flags: HW
TeX: 0 0 0 0
HStem: -160 21G<160 240> 240 80<90 310>
VStem: 160 80<-160 320>
Fore
280 480 m 1
 280 0 l 1
 200 0 l 1
 200 240 l 1
 120 240 l 1
 120 0 l 1
 40 0 l 1
 40 480 l 1
 120 480 l 1
 120 320 l 1
 200 320 l 1
 200 480 l 1
 280 480 l 1
EndSplineSet
EndChar
StartChar: F
Encoding: 70 70 42
Width: 320
Flags: HW
TeX: 0 0 0 0
HStem: 0 21G<40 120> 240 80<80 220> 400 80<80 260>
VStem: 40 80<0 480>
Fore
60 480 m 1
 120 480 l 1
 280 480 l 1
 280 457.7 269.973 419.945 260 400 c 1
 120 400 l 1
 120 320 l 1
 240 320 l 1
 240 297.7 229.973 259.945 220 240 c 1
 120 240 l 1
 120 0 l 1
 40 0 l 1
 40 480 l 1
 60 480 l 1
EndSplineSet
EndChar
StartChar: L
Encoding: 76 76 43
Width: 320
Flags: W
TeX: 0 0 0 0
HStem: 0 80<120 280> 460 20G<40 120>
VStem: 40 80<0 480>
Fore
80 80 m 13
 300 80 l 21
 300 57.7002 289.973 19.9453 280 0 c 13
 100 0 l 21
 90.0273 19.9453 80 57.7002 80 80 c 13
120 480 m 25
 120 0 l 25
 40 0 l 25
 40 480 l 25
 120 480 l 25
EndSplineSet
EndChar
StartChar: W
Encoding: 87 87 44
Width: 480
Flags: HW
TeX: 0 0 0 0
HStem: 20 21G<140 180> 380 20G<40 120 200 280>
VStem: 40 80<239.591 400> 200 80<233.469 400>
Fore
40 480 m 5
 120 480 l 5
 120 240 l 2
 120 227.61 125.569 206.642 131.11 195.56 c 2
 160 137.78 l 1
 188.89 195.56 l 2
 194.431 206.642 200 227.61 200 240 c 2
 200 280 l 1
 280 280 l 1
 280 240 l 2
 280 227.61 285.569 206.642 291.11 195.56 c 2
 320 137.78 l 1
 348.89 195.56 l 2
 354.431 206.642 360 227.61 360 240 c 2
 360 480 l 5
 440 480 l 5
 440 240 l 2
 440 217.7 429.973 179.945 420 160 c 2
 340 0 l 1
 300 0 l 1
 240 120 l 1
 180 0 l 1
 140 0 l 1
 60 160 l 2
 50.0272 179.946 40 217.7 40 240 c 2
 40 480 l 5
EndSplineSet
EndChar
StartChar: C
Encoding: 67 67 45
Width: 320
Flags: WO
TeX: 0 0 0 0
HStem: 0 80<129.914 193.082> 400 80<126.889 190.122>
VStem: 40 80<86.8884 390.086> 200 80<89.8907 160 320 393.066>
Fore
280 160 m 0
 280 100 l 2
 280 76.5303 267.596 45.5957 251 29 c 0
 234.404 12.4043 203.47 0 180 0 c 10
 140 0 l 18
 116.53 0 87.5957 14.4043 71 31 c 0
 54.4043 47.5957 40 76.5303 40 100 c 10
 40 380 l 18
 40 403.47 54.4043 434.404 71 451 c 0
 87.5957 467.596 116.53 480 140 480 c 10
 180 480 l 18
 203.47 480 234.404 467.596 251 451 c 0
 267.596 434.404 280 403.47 280 380 c 2
 280 320 l 0
 200 320 l 0
 200 380 l 2
 200 384.69 197.334 390.704 194.1 394.1 c 0
 190.865 397.496 184.69 400 180 400 c 10
 140 400 l 18
 135.311 400.041 129.217 397.416 125.9 394.1 c 0
 122.584 390.783 120 384.69 120 380 c 10
 120 100 l 18
 120 95.3096 122.584 89.2168 125.9 85.9004 c 0
 129.217 82.584 135.31 80 140 80 c 10
 180 80 l 22
 184.69 80 190.732 82.6357 194.1 85.9004 c 4
 197.468 89.1641 200 95.3096 200 100 c 6
 200 160 l 0
 280 160 l 0
EndSplineSet
EndChar
StartChar: G
Encoding: 71 71 46
Width: 320
Flags: HW
TeX: 0 0 0 0
HStem: 0 80<126.888 190.063> 400 80<129.914 234.307>
VStem: 40 80<89.9141 393.112> 200 80<86.8579 240>
Fore
210 480 m 18
 232.3 480 269.56 468.915 290 460 c 9
 254.2 388.5 l 17
 242.843 393.453 222.39 400 210 400 c 10
 140 400 l 18
 135.311 400 129.217 397.416 125.9 394.1 c 0
 122.584 390.783 120 384.69 120 380 c 10
 120 100 l 18
 120 95.3096 122.584 89.2168 125.9 85.9004 c 0
 129.217 82.584 135.31 80 140 80 c 10
 180 80 l 18
 184.69 80 190.732 82.6357 194.1 85.9004 c 0
 197.468 89.1641 200 95.3096 200 100 c 2
 200 240 l 1
 180 240 l 1
 170.027 259.946 160 297.7 160 320 c 0
 280 320 l 0
 280 100 l 2
 280 76.5303 267.596 45.5957 251 29 c 0
 234.404 12.4043 203.47 0 180 0 c 10
 140 0 l 18
 116.53 0 87.5957 14.4043 71 31 c 0
 54.4043 47.5957 40 76.5303 40 100 c 10
 40 380 l 18
 40 403.47 54.4043 434.404 71 451 c 0
 87.5957 467.596 116.53 480 140 480 c 10
 210 480 l 18
EndSplineSet
EndChar
StartChar: J
Encoding: 74 74 47
Width: 320
Flags: W
TeX: 0 0 0 0
HStem: 0 80<129.937 193.112> 460 20G<200 280>
VStem: 40 80<86.8579 160> 200 80<89.9141 480>
Fore
280 480 m 29
 280 100 l 18
 280 76.5303 265.596 47.5957 249 31 c 0
 232.404 14.4043 203.47 0 180 0 c 10
 140 0 l 18
 116.53 0 85.5957 12.4043 69 29 c 0
 52.4043 45.5957 40 76.5303 40 100 c 2
 40 160 l 0
 120 160 l 0
 120 100 l 2
 120 95.3096 122.532 89.1641 125.9 85.9004 c 0
 129.268 82.6357 135.31 80 140 80 c 10
 180 80 l 18
 184.69 80 190.783 82.584 194.1 85.9004 c 0
 197.416 89.2168 200 95.3096 200 100 c 10
 200 480 l 25
 280 480 l 29
EndSplineSet
EndChar
StartChar: U
Encoding: 85 85 48
Width: 320
Flags: W
TeX: 0 0 0 0
HStem: 0 80<129.937 193.112> 460 20G<40 120 200 280>
VStem: 40 80<86.8579 480> 200 80<89.9141 480>
Fore
280 480 m 25
 280 100 l 18
 280 76.5303 265.596 47.5957 249 31 c 0
 232.404 14.4043 203.47 0 180 0 c 10
 140 0 l 18
 116.53 0 85.5957 12.4043 69 29 c 0
 52.4043 45.5957 40 76.5303 40 100 c 2
 40 480 l 4
 120 480 l 4
 120 100 l 2
 120 95.3096 122.532 89.1641 125.9 85.9004 c 0
 129.268 82.6357 135.31 80 140 80 c 10
 180 80 l 18
 184.69 80 190.783 82.584 194.1 85.9004 c 0
 197.416 89.2168 200 95.3096 200 100 c 10
 200 480 l 25
 280 480 l 25
EndSplineSet
EndChar
StartChar: Z
Encoding: 90 90 49
Width: 320
Flags: HW
TeX: 0 0 0 0
HStem: 317.78 80<190 338.89> 597.78 80<98.89 258.89>
VStem: 158.89 20<317.78 333.887>
Fore
180 400 m 1
 40 400 l 1
 40 480 l 1
 280 480 l 1
 280 422.221 l 1
 280 420 l 1
 278.731 419.683 l 1
 131.11 124.44 l 2
 125.569 113.358 120 92.3896 120 80 c 1
 300 80 l 1
 300 57.7 289.973 19.9457 280 0 c 1
 40 0 l 1
 40 80 l 2
 40 102.3 50.0274 140.055 60 160 c 2
 180 400 l 1
EndSplineSet
EndChar
StartChar: X
Encoding: 88 88 50
Width: 320
Flags: W
TeX: 0 0 0 0
HStem: 0 21G<40 120 200 280> 460 20G<40 120 200 280>
VStem: 40 80<0 76.5312 403.469 480> 200 80<0 76.5312 403.469 480>
Fore
205 240 m 5
 260 130 l 6
 269.973 110.054 280 72.2998 280 50 c 6
 280 0 l 1
 200 0 l 1
 200 50 l 6
 200 62.3896 194.431 83.3584 188.89 94.4404 c 6
 160 152.22 l 5
 131.11 94.4404 l 6
 125.569 83.3584 120 62.3896 120 50 c 6
 120 0 l 1
 40 0 l 1
 40 50 l 6
 40 72.2998 50.0273 110.054 60 130 c 6
 115 240 l 5
 60 350 l 6
 50.0273 369.946 40 407.7 40 430 c 6
 40 480 l 1
 120 480 l 1
 120 430 l 6
 120 417.61 125.569 396.642 131.11 385.56 c 6
 160 327.78 l 5
 188.89 385.56 l 6
 194.431 396.642 200 417.61 200 430 c 6
 200 480 l 1
 280 480 l 1
 280 430 l 6
 280 407.7 269.973 369.946 260 350 c 6
 205 240 l 5
EndSplineSet
EndChar
StartChar: seven
Encoding: 55 55 51
Width: 320
Flags: HW
TeX: 0 0 0 0
HStem: 0 21G<80 160> 400 80<40 200>
VStem: 80 80<0 116.531>
Fore
200 400 m 1
 40 400 l 1
 40 480 l 1
 280 480 l 1
 280 390 l 6
 280 367.7 269.973 329.946 260 310 c 1
 171.11 134.44 l 2
 165.569 123.358 160 102.39 160 90 c 1
 160 0 l 25
 80 0 l 25
 80 90 l 2
 80 112.3 90.0273 150.055 100 170 c 2
 187.78 345.56 l 1
 193.321 356.642 200 377.61 200 390 c 1
 200 400 l 1
EndSplineSet
EndChar
StartChar: D
Encoding: 68 68 52
Width: 320
Flags: W
TeX: 0 0 0 0
HStem: 0 21G<40 120> 460 20G<40 120>
VStem: 40 80<80 400> 200 80<135.586 338.78>
Fore
280 160 m 6
 280 122.44 259.679 73.4389 233.12 46.88 c 4
 206.561 20.3211 157.56 0 120 0 c 6
 40 0 l 1
 40 480 l 1
 120 480 l 1
 157.56 480 206.561 459.679 233.12 433.12 c 0
 259.679 406.561 280 357.56 280 320 c 2
 280 160 l 6
120 80 m 1
 138.78 80 163.281 90.1605 176.56 103.44 c 1
 189.839 116.719 200 141.22 200 160 c 2
 200 320 l 2
 200 338.78 189.839 363.281 176.56 376.56 c 1
 163.281 389.839 138.78 400 120 400 c 2
 120 80 l 1
EndSplineSet
EndChar
StartChar: backslash
Encoding: 92 92 53
Width: 320
Flags: HW
TeX: 0 0 0 0
HStem: 0 21G<40 120 200 280> 460 20G<40 120 200 280>
VStem: 40 80<0 76.5312 403.469 480> 200 80<0 76.5312 403.469 480>
Fore
60 350 m 2
 50.0273 369.946 40 407.7 40 430 c 2
 40 480 l 1
 120 480 l 1
 120 430 l 2
 120 417.61 125.569 396.642 131.11 385.56 c 2
 260 130 l 6
 269.973 110.054 280 72.2998 280 50 c 2
 280 0 l 1
 200 0 l 1
 200 50 l 2
 200 62.3896 194.431 83.3584 188.89 94.4404 c 2
 60 350 l 2
EndSplineSet
EndChar
StartChar: slash
Encoding: 47 47 54
Width: 320
Flags: HW
TeX: 0 0 0 0
HStem: 0 21G<200 280 40 120> 460 20G<200 280 40 120>
VStem: 200 80<0 76.5312 403.469 480> 40 80<0 76.5312 403.469 480>
Fore
260 350 m 2
 131.11 94.4404 l 2
 125.569 83.3584 120 62.3896 120 50 c 2
 120 0 l 1
 40 0 l 1
 40 50 l 2
 40 72.2998 50.0273 110.054 60 130 c 2
 188.89 385.56 l 2
 194.431 396.642 200 417.61 200 430 c 2
 200 480 l 1
 280 480 l 1
 280 430 l 2
 280 407.7 269.973 369.946 260 350 c 2
EndSplineSet
EndChar
StartChar: ampersand
Encoding: 38 38 55
Width: 400
Flags: W
TeX: 0 0 0 0
HStem: 0 80<146.932 200 286.888 360> 240 80<135.31 200 280 340> 400 80<126.841 200>
VStem: 40 80<86.8584 166.94 326.858 390.051> 200 80<89.9141 240 320 480>
Fore
280 320 m 29
 360 320 l 21
 360 297.7 349.973 259.946 340 240 c 5
 280 240 l 5
 280 100 l 6
 280 95.3096 282.584 89.2168 285.9 85.9004 c 4
 289.216 82.584 295.31 80 300 80 c 14
 360 80 l 29
 360 0 l 29
 300 0 l 22
 276.53 0 245.596 12.4043 229 29 c 4
 212.404 45.5957 200 76.5303 200 100 c 6
 200 240 l 5
 120 240 l 5
 120 262.3 130.027 300.054 140 320 c 5
 200 320 l 5
 200 480 l 13
 280 480 l 29
 280 320 l 29
200 0 m 1
 140 0 l 2
 116.53 0 85.5957 12.4043 69 29 c 0
 52.4043 45.5957 40 76.5303 40 100 c 2
 40 120 l 2
 40 166.94 52.4043 227.8 69 261 c 0
 69.9014 262.802 70.8428 264.581 71.8252 266.337 c 1
 70.8428 267.211 69.9014 268.099 69 269 c 0
 52.4043 285.596 40 316.53 40 340 c 2
 40 380 l 2
 40 403.47 52.4043 434.404 69 451 c 0
 85.5957 467.596 116.53 480 140 480 c 2
 200 480 l 1
 200 400 l 1
 140 400 l 2
 135.31 400 129.135 397.496 125.9 394.1 c 0
 122.666 390.704 120 384.69 120 380 c 2
 120 340 l 2
 120 335.31 122.533 329.165 125.9 325.9 c 0
 129.268 322.636 135.31 320 140 320 c 2
 200 320 l 1
 200 240 l 1
 140 240 l 2
 135.31 240 129.135 225.24 125.9 204.84 c 0
 122.666 184.44 120 148.14 120 120 c 2
 120 100 l 2
 120 95.3096 122.533 89.165 125.9 85.9004 c 0
 129.268 82.6357 135.31 80 140 80 c 2
 200 79 l 1
 200 0 l 1
EndSplineSet
EndChar
StartChar: N
Encoding: 78 78 56
Width: 320
Flags: HW
TeX: 0 0 0 0
HStem: 0 21G<40 120 200 280> 460 20G<40 120 200 280>
VStem: 40 80<0 480>
Fore
200 480 m 1
 280 480 l 1
 280 0 l 1
 200 0 l 1
 200 480 l 1
120 0 m 1
 40 0 l 1
 40 480 l 1
 120 480 l 5
 120 467.22 125.395 446.991 131.11 435.56 c 1
 274.658 150.676 l 1
 203.104 114.899 l 1
 120 281.107 l 1
 120 0 l 1
EndSplineSet
EndChar
StartChar: M
Encoding: 77 77 57
Width: 440
Flags: W
TeX: 0 0 0 0
HStem: 0 21G<40 120 320 400> 460 20G<40 120 320 400>
VStem: 40 80<0 320> 320 80<0 323.107>
Fore
320 0 m 1
 320 323.107 l 5
 240 159.996 l 5
 210 160 l 5
 205.342 250.676 l 1
 319.896 477.336 320 480 320 480 c 1
 400 480 l 1
 400 0 l 1
 320 0 l 1
120 0 m 1
 40 0 l 1
 40 480 l 1
 120 480 l 9
 120 480 124 472.029 234.658 250.676 c 1
 230 160 l 5
 200 159.996 l 5
 120 320 l 5
 120 0 l 1
EndSplineSet
EndChar
StartChar: period
Encoding: 46 46 58
Width: 160
Flags: W
TeX: 0 0 0 0
Fore
80 113.332 m 4
 92.5195 113.332 108.88 106.585 117.732 97.7324 c 4
 126.585 88.8799 133.332 72.5195 133.332 60 c 4
 133.332 47.4805 126.585 31.1201 117.732 22.2676 c 4
 108.88 13.415 92.5195 6.66797 80 6.66797 c 4
 67.4805 6.66797 51.1201 13.415 42.2676 22.2676 c 4
 33.415 31.1201 26.668 47.4805 26.668 60 c 4
 26.668 72.5195 33.415 88.8799 42.2676 97.7324 c 4
 51.1201 106.585 67.4805 113.332 80 113.332 c 4
EndSplineSet
EndChar
StartChar: comma
Encoding: 44 44 59
Width: 160
Flags: HWO
TeX: 0 0 0 0
HStem: 6.66797 53.332<63.7246 96.2754>
Fore
80 113.332 m 4
 92.5195 113.332 108.88 106.585 117.732 97.7324 c 4
 126.585 88.8799 133.332 72.5195 133.332 60 c 4
 133.332 47.4805 126.585 31.1201 117.732 22.2676 c 4
 108.88 13.415 92.5195 6.66797 80 6.66797 c 4
 67.4805 6.66797 51.1201 13.415 42.2676 22.2676 c 4
 33.415 31.1201 26.668 47.4805 26.668 60 c 4
 26.668 72.5195 33.415 88.8799 42.2676 97.7324 c 4
 51.1201 106.585 67.4805 113.332 80 113.332 c 4
133.333 60 m 5
 133.333 22.4404 113.012 -26.5615 86.4531 -53.1201 c 4
 68.7217 -70.8516 40.9873 -85.8027 13.333 -93.7822 c 5
 13.333 -71.4824 23.3604 -39.9453 33.333 -20 c 5
 38.0234 -20 44.0654 -17.3643 47.4326 -14.0996 c 4
 50.8008 -10.8359 52.9082 -4.6709 53.333 0 c 14
 53.333 60 l 29
 133.333 60 l 5
EndSplineSet
EndChar
StartChar: four
Encoding: 52 52 62
Width: 320
Flags: W
TeX: 0 0 0 0
HStem: 0 21G<160 240> 80 80<120 280> 460 20G<160 240 160 240>
VStem: 160 80<0 480>
Fore
240 480 m 29
 240 0 l 29
 160 0 l 29
 160 480 l 29
 240 480 l 29
120 160 m 1
 280 160 l 1
 280 80 l 1
 40 80 l 1
 40 170 l 2
 40 192.3 50.0273 230.055 60 250 c 1
 148.89 425.56 l 2
 154.431 436.642 160 457.61 160 470 c 1
 160 480 l 25
 240 480 l 25
 240 470 l 2
 240 447.7 229.973 409.945 220 390 c 2
 132.22 214.44 l 1
 126.679 203.358 120 182.39 120 170 c 1
 120 160 l 1
EndSplineSet
EndChar
StartChar: hyphen
Encoding: 45 45 63
Width: 320
Flags: HW
TeX: 0 0 0 0
HStem: 0 21G<120 200> 200 80<40 280> 460 20G<120 200>
VStem: 120 80<0 480>
Fore
40 280 m 25
 280 280 l 25
 280 200 l 25
 40 200 l 25
 40 280 l 25
EndSplineSet
EndChar
StartChar: plus
Encoding: 43 43 64
Width: 320
Flags: W
TeX: 0 0 0 0
HStem: 200 80<40 280>
VStem: 120 80<80 400>
Fore
40 280 m 25
 280 280 l 25
 280 200 l 25
 40 200 l 25
 40 280 l 25
200 400 m 25
 200 80 l 29
 120 80 l 29
 120 400 l 25
 200 400 l 25
EndSplineSet
EndChar
StartChar: asterisk
Encoding: 42 42 65
Width: 400
Flags: HW
TeX: 0 0 0 0
HStem: 220 80<50 370>
Fore
333.108 416.774 m 29
 138.446 27.4492 l 29
 66.8916 63.2256 l 29
 261.554 452.551 l 29
 333.108 416.774 l 29
40 280 m 29
 360 280 l 29
 360 200 l 29
 40 200 l 29
 40 280 l 29
138.446 452.551 m 29
 333.108 63.2256 l 29
 261.554 27.4492 l 29
 66.8916 416.774 l 29
 138.446 452.551 l 29
EndSplineSet
EndChar
StartChar: bar
Encoding: 124 124 66
Width: 160
Flags: HW
TeX: 0 0 0 0
HStem: 0 21G<40 120> 460 20G<40 120>
VStem: 40 80<0 480>
Fore
120 520 m 25
 120 -40 l 29
 40 -40 l 29
 40 520 l 25
 120 520 l 25
EndSplineSet
EndChar
StartChar: numbersign
Encoding: 35 35 67
Width: 400
Flags: W
TeX: 0 0 0 0
HStem: 160 80<40 360> 320 80<40 360> 460 20G<80 160 240 320>
VStem: 80 80<80 480> 240 80<80 480>
Fore
320 480 m 29
 320 80 l 29
 240 80 l 29
 240 480 l 29
 320 480 l 29
160 480 m 25
 160 80 l 25
 80 80 l 25
 80 480 l 25
 160 480 l 25
40 400 m 25
 360 400 l 25
 360 320 l 25
 40 320 l 25
 40 400 l 25
40 240 m 25
 360 240 l 25
 360 160 l 25
 40 160 l 25
 40 240 l 25
EndSplineSet
EndChar
StartChar: percent
Encoding: 37 37 68
Width: 320
Flags: WO
TeX: 0 0 0 0
HStem: 100 26.667<227.292 251.313> 153.333 26.667<227.292 251.315> 380 26.667<67.2923 91.313> 433.333 26.667<67.2923 91.315>
VStem: 40 26.667<408.686 432.708> 93.333 26.667<407.291 431.313> 200 26.667<128.686 152.708> 253.333 26.667<127.291 151.313>
Fore
233.333 153.333 m 22
 231.771 153.347 229.739 152.472 228.634 151.366 c 4
 227.528 150.261 226.667 148.229 226.667 146.667 c 14
 226.667 133.333 l 22
 226.667 131.771 227.528 129.739 228.634 128.634 c 4
 229.739 127.528 231.771 126.667 233.333 126.667 c 14
 246.667 126.667 l 22
 248.229 126.667 250.244 127.546 251.366 128.634 c 4
 252.489 129.722 253.333 131.771 253.333 133.333 c 14
 253.333 146.667 l 22
 253.333 148.229 252.444 150.234 251.366 151.366 c 4
 250.288 152.499 248.229 153.333 246.667 153.333 c 14
 233.333 153.333 l 22
233.333 180 m 14
 246.667 180 l 22
 254.49 180 264.802 175.865 270.333 170.334 c 4
 275.865 164.802 280 154.49 280 146.667 c 14
 280 133.333 l 22
 280 125.51 275.865 115.198 270.333 109.666 c 4
 264.802 104.135 254.49 100 246.667 100 c 14
 233.333 100 l 22
 225.51 100 215.865 104.801 210.333 110.333 c 4
 204.801 115.865 200 125.51 200 133.333 c 14
 200 146.667 l 22
 200 154.49 204.801 164.802 210.333 170.334 c 4
 215.865 175.865 225.51 180 233.333 180 c 14
73.333 433.333 m 22
 71.7705 433.347 69.7393 432.472 68.6338 431.366 c 4
 67.5283 430.261 66.667 428.229 66.667 426.667 c 14
 66.667 413.333 l 22
 66.667 411.771 67.5283 409.739 68.6338 408.634 c 4
 69.7393 407.528 71.7705 406.667 73.333 406.667 c 14
 86.667 406.667 l 22
 88.2295 406.667 90.2441 407.546 91.3662 408.634 c 4
 92.4893 409.722 93.333 411.771 93.333 413.333 c 14
 93.333 426.667 l 22
 93.333 428.229 92.4443 430.234 91.3662 431.366 c 4
 90.2881 432.499 88.2295 433.333 86.667 433.333 c 14
 73.333 433.333 l 22
73.333 460 m 14
 86.667 460 l 22
 94.4902 460 104.802 455.865 110.333 450.334 c 4
 115.865 444.802 120 434.49 120 426.667 c 14
 120 413.333 l 22
 120 405.51 115.865 395.198 110.333 389.666 c 4
 104.802 384.135 94.4902 380 86.667 380 c 14
 73.333 380 l 22
 65.5098 380 55.8652 384.801 50.333 390.333 c 4
 44.8008 395.865 40 405.51 40 413.333 c 14
 40 426.667 l 22
 40 434.49 44.8008 444.802 50.333 450.334 c 4
 55.8652 455.865 65.5098 460 73.333 460 c 14
260 390 m 6
 131.11 134.44 l 6
 125.569 123.358 120 102.39 120 90 c 6
 120 80 l 5
 40 80 l 5
 40 90 l 6
 40 112.3 50.0273 150.054 60 170 c 6
 188.89 425.56 l 6
 194.431 436.642 200 457.61 200 470 c 6
 200 480 l 5
 280 480 l 5
 280 470 l 6
 280 447.7 269.973 409.946 260 390 c 6
EndSplineSet
EndChar
